<svg viewBox="0 0 542 254" xmlns="http://www.w3.org/2000/svg">
  <g stroke="#232323" fill="none" fill-rule="evenodd" opacity=".30031622" stroke-linecap="square">
    <path d="M104.50319113 650.6121568L328.75233228 37.01361917M117.43196205 670.52071817L356.04718182 16.45767602M-54.0897325 406.40047018L4.236502 245.86968894M503.53334437 187.6858009L251.46022093 876.90613819M516.4621154 207.59436245L264.38899144 896.8146989M430.70126812 75.53423846L178.62814431 764.75457514M443.19908007 94.7791812L191.12595664 783.99951848M7.53740967 501.29794724l121.53179128-333.66509909M20.03522239 520.54288934l135.73879818-372.13932717M382.0028976.54532389L129.92977384 689.76566066M394.5007095 19.79026655l-252.07312388 689.2203366M-42.45383784 424.31817486l71.19410657-194.3614181M-29.52506797 444.22673645l84.22105132-230.18233178M80.36948575 613.44950944L279.15476889 70.1661407M92.8672968 632.69445262l212.99229004-581.7575968M528.9599272 226.83930495L276.88680375 916.05964222M541.45773898 246.08424744L289.38461554 935.3045847M454.8349739 112.69688643L202.76185046 801.9172237M467.76374493 132.60544797L215.69062096 821.82578441M31.67111473 538.46059411l147.42660832-403.31664928M44.16892726 557.70553776L205.96161442 113.9243843M406.56756235 38.3715905L154.4944387 727.59192742M419.06537425 57.61653315L166.99225048 746.83686992M-17.02725648 463.47168033L80.2207398 197.4684352M-4.52944247 482.71662257l110.2749404-301.82415791M479.39963876 150.5231532L227.32651478 839.74348962M491.89745054 169.76809569L239.82432711 858.98843296M56.23577915 576.2868602l174.07052804-476.28513328M68.73359064 595.53180407l187.097473-512.10604661"/>
  </g>
</svg>
