<svg viewBox="0 0 144 128" xmlns="http://www.w3.org/2000/svg">
  <g stroke="#232323" fill="none" fill-rule="evenodd" stroke-linecap="square">
    <path d="M142.96152423.78014552l-73 126.43970896M133.51045854 1.14987148L65.48619 118.97136074M124.08225532 1.47999849L60.99995677 110.74174463M114.65405209 1.8101255L56.64326404 102.2877578M105.72584886 1.27422712L52.2697558 93.86289626M96.29764563 1.60435414L47.26411308 86.53292379M86.8694424 1.93448116L42.46897435 78.8383477M77.44123917 2.26460818L38.25676962 70.1341003M68.51303593 1.7287098L34.01217938 61.48594623M59.0848327 2.05883681L29.58483265 53.15433572M49.65662947 2.38896383l-25 43.30127019M40.22842624 2.71909085l-20.14827 34.89782732M30.80022301 3.04921787L15.76955011 29.083107M21.87201978 2.51331948L11.37299863 20.69815754M12.44381655 2.8434465l-5.9761909 10.35106628M2.78756672 3.56856182l-1.2988036 2.24959382"/>
  </g>
</svg>
