<svg id="Layer_1" data-name="Layer 1" xmlns="http://www.w3.org/2000/svg" viewBox="0 0 721.06 802.45"><defs><style>.cls-1{fill:#c2bcb4;stroke:#c2bcb4;stroke-miterlimit:10;}</style></defs><title>Portrait</title><line class="cls-1" x1="249.49" y1="30.25" x2="190.31" y2="122.34"/><polyline class="cls-1" points="220.27 182.38 209.38 180.73 207.08 177.43 190.58 124.66"/><line class="cls-1" x1="294.17" y1="93.12" x2="246" y2="123.86"/><polyline class="cls-1" points="242.95 130.19 227.53 171.16 220.93 179.74"/><line class="cls-1" x1="249.3" y1="131.58" x2="318.89" y2="97.94"/><polygon class="cls-1" points="326.51 195.96 318.26 189.12 297.14 189.31 288.23 196.01 291.61 195.44 320.42 195.34 326.51 195.96"/><polyline class="cls-1" points="255.48 29.47 276.1 26.08 306.64 6.76 390.17 0.5"/><line class="cls-1" x1="390.69" y1="3.37" x2="405.05" y2="23.47"/><line class="cls-1" x1="404.26" y1="25.82" x2="452.29" y2="28.43"/><polyline class="cls-1" points="458.03 31.56 481 52.7 499.01 81.16 507.24 92.65 505.01 165.87 495.23 183.99"/><polyline class="cls-1" points="478.09 183.01 480.41 186.11 495.23 183.99"/><polyline class="cls-1" points="473.69 147.2 480.08 168.02 475.71 183.81 474.22 178.19"/><polyline class="cls-1" points="468.41 150.77 471.1 156.73 470.91 183.63 458.8 164.22"/><polyline class="cls-1" points="454.96 164.22 455.92 179.98 456.69 196.12 445.55 174.79"/><polyline class="cls-1" points="453.62 144.82 452.65 162.69 442.86 175.17"/><polyline class="cls-1" points="444.58 141.17 444.58 160 442.86 175.17"/><polyline class="cls-1" points="442.66 129.25 437.86 158.46 435.36 146.54 433.83 127.33"/><polyline class="cls-1" points="393.86 104.47 412.69 127.72 415.96 129.44 401.36 127.52 388.74 118.02 386.56 116.38"/><polyline class="cls-1" points="362.93 146.35 358.51 164.61 387.52 119.07"/><polyline class="cls-1" points="390.98 119.84 393.09 142.7 387.9 150.39"/><line class="cls-1" x1="384.83" y1="124.64" x2="387.91" y2="150.39"/><polyline class="cls-1" points="377.53 117.92 375.48 123.44 363.9 143.97 356.78 151.35"/><polyline class="cls-1" points="371 117.92 353.48 142.12 330.84 153.46"/><polyline class="cls-1" points="362.16 101.97 364.08 110.81 356.59 131.17 344.1 141.55 322.39 151.16 335.64 138.48 350.63 112.92 350.44 103.7 324.31 135.59 294.72 138.28 319.96 124.4 339.87 103.7"/><polyline class="cls-1" points="329.3 103.31 316.62 116.96 268.59 141.17 294.72 118.11 301.83 110.42"/><polyline class="cls-1" points="303.62 89.6 371.19 81.22 401.82 83.05"/><line class="cls-1" x1="402.32" y1="99.66" x2="321.04" y2="96.97"/><line class="cls-1" x1="411.86" y1="103.78" x2="465.91" y2="142.13"/><polyline class="cls-1" points="409.68 84.8 473.41 134.06 474.75 137.32"/><line class="cls-1" x1="263.98" y1="131.03" x2="223.39" y2="181.77"/><polyline class="cls-1" points="239.43 168.55 237.18 195.56 238.57 195.14 262.46 150.12"/><polyline class="cls-1" points="258.59 173.05 252.1 202.32 252.66 203.84 278.2 163.93"/><polyline class="cls-1" points="304.59 149.97 330.39 154.94 333.25 160.22 334.01 166.56 300.82 156.75 275.48 160.53"/><line class="cls-1" x1="280.45" y1="156.45" x2="301.57" y2="149.36"/><line class="cls-1" x1="356.78" y1="151.35" x2="331.59" y2="154.49"/><polyline class="cls-1" points="379.24 163.6 377.25 169.89 377.25 171.88 378.47 172.34 414.21 164.83 426.95 166.51"/><line class="cls-1" x1="422.19" y1="156.39" x2="429.71" y2="165.13"/><line class="cls-1" x1="378.63" y1="160.99" x2="419.58" y2="153.78"/><line class="cls-1" x1="378.78" y1="192.13" x2="388.9" y2="185.23"/><line class="cls-1" x1="413.57" y1="182.33" x2="420.16" y2="186.93"/><polygon class="cls-1" points="377.26 197.41 390.09 188.84 410.19 188.84 420.4 197.78 417.74 198.01 397.44 195.14 378.48 197.81 377.26 197.41"/><polygon class="cls-1" points="416.8 193.86 424.77 192.6 417.26 192.43 416.8 193.86"/><polygon class="cls-1" points="291.99 192.37 284.36 189.81 292.14 190.79 291.99 192.37"/><polyline class="cls-1" points="389.37 193.82 387.52 199.34 392.89 206.4 403.99 206.83 407.77 200.41 406.39 193.05"/><polyline class="cls-1" points="409.46 208.54 396.73 208.7 388.43 207.02"/><polyline class="cls-1" points="298.88 193.78 299.94 201.64 307.45 206.7 314.66 207.01 321.7 198.72 321.47 193.31"/><line class="cls-1" x1="320.34" y1="181.85" x2="328.47" y2="189.06"/><line class="cls-1" x1="294.37" y1="180.78" x2="286.09" y2="185.84"/><polyline class="cls-1" points="253.74 207.96 263.06 228.57 264.5 228.77 262.76 197.92"/><polyline class="cls-1" points="218.08 183.19 206.42 184.15 200.83 183.22 223.3 194.24 231.39 193.63"/><polyline class="cls-1" points="222.43 195.19 210.51 197.63 201.38 197.63 211.12 203.46 229.83 203.72"/><polyline class="cls-1" points="226.86 205.41 209.91 223.84 214.36 224.48 239.15 210.29"/><polyline class="cls-1" points="234.56 215.63 238.83 220.43 255.48 230.89 241.82 212.53"/><polyline class="cls-1" points="235.41 218.72 236.91 229.5 247.26 257.9 254.73 265.05 253.67 251.6 253.24 248.19 258.47 240.82 258.36 226.94"/><polyline class="cls-1" points="237.42 236.88 222.98 254.93 239.68 249.52 239.45 255.16 231.55 265.54 203.12 289.23 206.02 289.35 241.08 274.19"/><polyline class="cls-1" points="237.19 276.37 231.32 298.35 232.55 298.63 248.37 283 250.74 270.02"/><polyline class="cls-1" points="247 285.8 245.94 288.85 233.51 305.5 233.4 306.68 248.29 295.19 250.05 292.14"/><polyline class="cls-1" points="249.11 295.77 246.53 313.59 248.52 313.36 258.96 301.4"/><polyline class="cls-1" points="446.8 189.15 430.85 215.83 429.93 219.51 452.01 209.08"/><line class="cls-1" x1="449.86" y1="214.6" x2="433.92" y2="227.79"/><polyline class="cls-1" points="451.4 219.2 443.42 236.68 446.02 263.52 432.32 293.78"/><polyline class="cls-1" points="434.84 289.73 436.8 297.09 431.46 321.01 404.17 347.69"/><polyline class="cls-1" points="442.5 302 442.5 310.89 438.21 330.21 435.76 310.89"/><polyline class="cls-1" points="446.8 232.69 456.61 244.35 455.38 213.07"/><polyline class="cls-1" points="459.06 205.4 463.66 211.53 458.75 232.08 469.8 219.51 467.34 197.74"/><polyline class="cls-1" points="477.77 185.78 489.42 216.13 476.85 198.96 475.98 199.96 479.36 233.59 472.92 214.76"/><polyline class="cls-1" points="255.15 266.33 258.46 281.51 259.93 293.21 270.05 313.42 274.53 325.92 300.19 351.79"/><line class="cls-1" x1="320.76" y1="207.65" x2="303.49" y2="208.98"/><polyline class="cls-1" points="265.76 223.32 318.64 213.76 329 208.44 368.06 209.24 438.21 230.5"/><polyline class="cls-1" points="266.83 317.85 238.49 318.53 221.76 347.55"/><polyline class="cls-1" points="228.59 331.17 199.92 338.68 184.55 380.32"/><line class="cls-1" x1="273.31" y1="330.14" x2="265.8" y2="342.09"/><line class="cls-1" x1="265.8" y1="342.09" x2="273.65" y2="358.82"/><polygon class="cls-1" points="256.98 330.57 238.49 342.09 203.33 356.77 196.84 372.13 188.99 417.88 182.89 445.36 191.04 470.79 193.85 432.15 209.22 366.02 256.98 330.57"/><polyline class="cls-1" points="244.64 354.38 221.42 368.72 212.89 381.35 206.06 490.25"/><polyline class="cls-1" points="251.81 364.28 251.76 397.66 252.1 410.63 227.57 459.87"/><polyline class="cls-1" points="262.05 419.24 269.9 443.48 270.24 459.52"/><polyline class="cls-1" points="191.35 355.1 172.53 369.79 172.07 459.76"/><polyline class="cls-1" points="174.37 465.27 229 634.66 255.62 644.75"/><polyline class="cls-1" points="257 609.87 280.87 650.72 298.31 656.69 326.31 627.77"/><line class="cls-1" x1="253.78" y1="451.5" x2="248.27" y2="586"/><polyline class="cls-1" points="257.39 549.01 259.31 555.28 334.49 589.25 374.97 599.61 376.65 602.74 376.41 605.63"/><polyline class="cls-1" points="260.04 543.71 269.19 540.82 346.3 562.99 388.46 565.4"/><polyline class="cls-1" points="272.81 488.53 270.16 491.91 269.97 502.83 285.1 509.01"/><polyline class="cls-1" points="274.49 507.33 276.9 509.98 340.27 538.65"/><polyline class="cls-1" points="344.37 540.34 364.13 550.94 377.14 561.06"/><polyline class="cls-1" points="274.74 487.33 283.41 486.13 360.27 513.59 394.97 531.18"/><polyline class="cls-1" points="309.19 458.66 310.64 461.07 370.87 495.04"/><polyline class="cls-1" points="373.18 497.19 391.59 521.06 396.65 528.05"/><line class="cls-1" x1="387.26" y1="518.41" x2="387.98" y2="525.4"/><polyline class="cls-1" points="319.07 460.1 307.74 454.8 307.02 446.13 315.21 439.86 391.83 470.22"/><polyline class="cls-1" points="396.17 472.63 418.1 490.94 443.64 519.38 459.78 556"/><polygon class="cls-1" points="278.2 486.39 278.2 356.16 282.75 354.41 407.38 353.01 414.5 353.01 414.5 487.74 396.17 472.63 315.21 439.86 307.02 446.13 278.45 430.65 278.2 486.39"/><line class="cls-1" x1="278.55" y1="512.3" x2="278.55" y2="542.43"/><polyline class="cls-1" points="277.71 565.02 277.71 598.78 364.75 598.78"/><polyline class="cls-1" points="311.21 600.63 357.84 625.96 360.52 628.05 368.56 629.83 388.13 642.21 432.44 652.99"/><polyline class="cls-1" points="417.4 339.55 438.94 347.16 443.27 374.08"/><polyline class="cls-1" points="443.88 361.86 469.86 378.06 476.76 405.3 481.48 423.9"/><polyline class="cls-1" points="479.64 405.56 494.31 416.87 521.82 544.32"/><polyline class="cls-1" points="464.36 421.76 501.65 521.4 501.34 532.1 496.76 534.24"/><line class="cls-1" x1="457.64" y1="466.39" x2="504.4" y2="547.68"/><line class="cls-1" x1="421.57" y1="394.87" x2="467.72" y2="510.09"/><polyline class="cls-1" points="457.33 522.32 430.74 432.46 428.3 431.24 428.6 502.45"/><polyline class="cls-1" points="451.79 533.03 492.21 550.06 494.28 553.93 525.31 799.26"/><line class="cls-1" x1="461.21" y1="551.76" x2="470.75" y2="799.2"/><polyline class="cls-1" points="496.04 555.59 542.73 566.51 564.93 592.41"/><polyline class="cls-1" points="562.94 586.27 642.49 601.6 660.01 631.52"/><polyline class="cls-1" points="720.29 799.14 675.88 674.61 655.27 651.53 661.86 634.22"/><line class="cls-1" x1="590.14" y1="619.38" x2="653.16" y2="799.32"/><polyline class="cls-1" points="494.1 410.81 552.63 443.79 574.48 519.22"/><polyline class="cls-1" points="576.92 516.51 595.55 534.17 596.53 544.95 607.91 591.25"/><polyline class="cls-1" points="377.31 637.85 384.25 661.75 416.38 665.35 443.37 647.1 462.13 618.57"/><polyline class="cls-1" points="372.17 634.76 371.91 665.1 404.3 676.66 432.57 659.7 450.05 650.19 460.85 637.85"/><polyline class="cls-1" points="359.83 631.42 352.37 651.99 353.14 696.2 328.18 729.8"/><line class="cls-1" x1="334.69" y1="732.25" x2="349.99" y2="799.26"/><line class="cls-1" x1="351.57" y1="705.22" x2="380.34" y2="799.32"/><line class="cls-1" x1="397.86" y1="693.58" x2="391.24" y2="799.32"/><polyline class="cls-1" points="418.1 709.05 436.3 725.88 435.84 732.7 421.51 755.21 404.77 799.38"/><polyline class="cls-1" points="427.2 696.09 430.61 705.64 442.21 705.18"/><polyline class="cls-1" points="444.71 693.36 453.58 691.08 465.86 679.03"/><polyline class="cls-1" points="402.41 679.48 424.24 694.04 429.93 694.49"/><polyline class="cls-1" points="435.62 707.23 446.07 721.1 467.56 727.96"/><polyline class="cls-1" points="240.66 641.9 288.85 723.95 320.68 730.74"/><line class="cls-1" x1="170.49" y1="379.33" x2="146.76" y2="396.06"/><line class="cls-1" x1="143.65" y1="355.6" x2="146.76" y2="401.12"/><line class="cls-1" x1="154.54" y1="414.35" x2="169.72" y2="402.29"/><polyline class="cls-1" points="102.48 343.53 112.08 336.91 120.3 327.77 121.67 321.15 112.3 311.79 86.27 321.38 75.31 331.2"/><polygon class="cls-1" points="50.64 349.24 55.89 336.22 92.66 334.39 94.95 335.31 103.85 345.81 113.22 357.46 116.19 360.43 88.95 345.36 50.64 349.24"/><line class="cls-1" x1="120.07" y1="365.68" x2="116.41" y2="396.74"/><polyline class="cls-1" points="78.73 350.15 79.19 359.29 74.62 357.46"/><line class="cls-1" x1="80.7" y1="359.98" x2="98.75" y2="373.46"/><polyline class="cls-1" points="99.5 375.94 101.48 389.09 106.94 397.52"/><line class="cls-1" x1="111.15" y1="338.5" x2="110.41" y2="352.63"/><line class="cls-1" x1="123.3" y1="320.89" x2="140.17" y2="345.94"/><polyline class="cls-1" points="31.55 387.35 31.55 379.42 48.42 349.91 60.32 347.18 89.58 372.23"/><polyline class="cls-1" points="91.07 377.18 97.51 398.76 101.73 413.14 93.8 415.37 83.13 410.66"/><polyline class="cls-1" points="15.93 416.36 17.67 402.73 49.66 374.7 57.34 374.7 79.16 396.53"/><polyline class="cls-1" points="43.7 398.26 49.63 404.25 48.71 406.85 43.08 407.4"/><polyline class="cls-1" points="50.9 404.46 55.36 404.46 66.77 413.39 67.76 423.31 77.92 435.71 87.1 434.47 81.4 402.48"/><polyline class="cls-1" points="6.26 424.3 18.41 414.88 62.05 413.39"/><line class="cls-1" x1="84.27" y1="414.42" x2="89.67" y2="414.62"/><polyline class="cls-1" points="99.47 399.93 109.77 396.43 113.67 396.52 134.57 398.43"/><polyline class="cls-1" points="101.87 409.92 116.17 406.93 125.77 406.52 143.27 406.63 160.44 419.33 156.18 496.16 159.43 502.17 156.43 505.92 112.64 501.17 79.6 499.92 28.05 509.68"/><polyline class="cls-1" points="6.03 426.09 15.79 468.63 17.79 469.89"/><polyline class="cls-1" points="18.7 468.03 20.07 482.52 26.81 502.49 20.45 508.73 27.08 514.56 30.89 513.95"/><polyline class="cls-1" points="32.05 515.21 31.27 548.92 28.42 551.52 24.88 637.21 24.88 727.97 41.52 758.6 66.86 782.43 80.85 791.88 95.56 799.38"/><polyline class="cls-1" points="158.47 506.2 159.5 513.39 146.43 519.85"/><polyline class="cls-1" points="155.28 517.37 152.89 529.11 120.94 539.74"/><polyline class="cls-1" points="149.66 531.45 157.24 542.17 154.93 561.92"/><polyline class="cls-1" points="157.19 560.05 174.77 615.45 185.15 734.45 169.04 762.61"/><polyline class="cls-1" points="21.79 626.65 0.52 728.26 9.37 757.91 21.75 769.85 34.94 799.19"/><polyline class="cls-1" points="445.76 239.23 464.99 263.52 450.82 261.5 446.77 257.11"/><polyline class="cls-1" points="448.12 265.21 458.24 290.18 441.58 282.98 453.85 306.9 440.36 299.24"/><line class="cls-1" x1="34.31" y1="799.46" x2="720.76" y2="799.46"/></svg>