<svg viewBox="0 0 519 215" xmlns="http://www.w3.org/2000/svg">
  <g stroke="#C2BCB4" fill="none" fill-rule="evenodd">
    <path d="M1 1h517v213H1z"/>
    <path d="M221.88570564 1.500001L2.522474 191.21612M234.8857048 1.499999L1.151462 203.644876M46.13570543 1.5000003L1.6532004 39.97066M59.13570654 1.4999996L1.6516604 51.215032M126.375 214.5l246.285706-213M139.375 214.5l246.285706-213M277.15 214.5L517.576016 6.36703597M290.15 214.5L517.597592 17.3488068M51.45 214.5l246.285706-213M64.45 214.5l246.285706-213M121.98570551 1.499999L2.620236 104.733132M134.9857059 1.500001L2.005594 116.507746M202.225 214.5l246.285706-213M215.225 214.5l246.285706-213M353 214.5L517.646556 72.1055547M366 214.5L517.788282 83.2260225M427.925 214.5l89.648234-77.532205M440.925 214.5l76.789961-66.411738M1.5 214.5l246.285706-213M14.5 214.5l246.285706-213M71.11070499 1.499999L1.5247544 61.681354M84.11070646 1.4999993L1.6664824 72.801822M196.91070511 1.5L2.546914 169.595372M209.91070549 1.500001L1.932272 181.369986M152.275 214.5l246.285706-213M165.275 214.5l246.285706-213M303.05 214.5L517.631893 28.9190174M316.05 214.5L517.622346 40.1703142M76.425 214.5l246.285706-213M89.425 214.5l246.285706-213M146.96070604 1.500001L2.595796 126.35388M159.9607052 1.500001L1.224784 138.782638M227.2 214.5l246.285706-213M240.2 214.5l246.285706-213M377.975 214.5L517.622115 93.7263018M390.975 214.5l126.788841-109.65323M453.825 214.5l64.007782-55.35708M466.825 214.5l50.979272-44.089384M26.475 214.5l246.285706-213M39.475 214.5l246.285706-213M97.01070593 1.4999995L1.7082084 83.92229M110.01070562 1.5000009L2.030034 94.887M177.25 214.5l246.285706-213M190.25 214.5l246.285706-213M328.025 214.5L517.495441 50.6366368M341.025 214.5L517.812723 61.6052761M101.4 214.5l246.285706-213M114.4 214.5l246.285706-213M171.93570574 1.500001L1.814986 148.628772M184.9357052 1.499999L1.956712 159.749238M252.175 214.5l246.285706-213M265.175 214.5l246.285706-213M402.95 214.5l114.647675-99.152952M415.95 214.5l101.789401-88.032484M478.8 214.5l38.953005-33.688476M491.8 214.5l26.019095-22.502594M504.775 213.5l12.631363-10.924224M17.50000055 1.5000005L1.746134 15.2301778M30.22801952 1.500001L1.4699801 26.33898581" stroke-linecap="square"/>
  </g>
</svg>
